<svg width="38" height="38" viewBox="0 0 38 38" fill="none" xmlns="http://www.w3.org/2000/svg">
<g filter="url(#filter0_d_7080_51148)">
<rect x="5.08594" y="3" width="28" height="28" rx="14" fill="#ECF7FD" shape-rendering="crispEdges"/>
<rect x="5.66927" y="3.58333" width="26.8333" height="26.8333" rx="13.4167" stroke="#2D189F" stroke-width="1.16667" shape-rendering="crispEdges"/>
<path d="M21.2734 14.8125C21.2734 13.6044 20.2941 12.625 19.0859 12.625C17.8778 12.625 16.8984 13.6044 16.8984 14.8125C16.8984 16.0207 17.8778 17 19.0859 17C20.2941 17 21.2734 16.0207 21.2734 14.8125Z" stroke="#25A4E8" stroke-width="1.09375" stroke-linecap="round" stroke-linejoin="round"/>
<path d="M26.3789 22.1042C26.3789 20.8961 25.3996 19.9167 24.1914 19.9167C22.9832 19.9167 22.0039 20.8961 22.0039 22.1042C22.0039 23.3124 22.9832 24.2917 24.1914 24.2917C25.3996 24.2917 26.3789 23.3124 26.3789 22.1042Z" stroke="#25A4E8" stroke-width="1.09375" stroke-linecap="round" stroke-linejoin="round"/>
<path d="M26.2688 18.2542C26.3395 17.8467 26.3763 17.4276 26.3763 16.9999C26.3763 12.9728 23.1117 9.70825 19.0846 9.70825C15.0576 9.70825 11.793 12.9728 11.793 16.9999C11.793 21.027 15.0576 24.2916 19.0846 24.2916C19.5124 24.2916 19.9314 24.2548 20.3389 24.1841" stroke="#25A4E8" stroke-width="1.09375" stroke-linecap="round" stroke-linejoin="round"/>
<path d="M15.4414 20.6458C15.4414 18.6323 17.0737 17 19.0872 17C20.2352 17 21.2591 17.5305 21.9274 18.3598" stroke="#25A4E8" stroke-width="1.09375" stroke-linecap="round" stroke-linejoin="round"/>
</g>
<defs>
<filter id="filter0_d_7080_51148" x="0.419271" y="0.666667" width="37.3333" height="37.3333" filterUnits="userSpaceOnUse" color-interpolation-filters="sRGB">
<feFlood flood-opacity="0" result="BackgroundImageFix"/>
<feColorMatrix in="SourceAlpha" type="matrix" values="0 0 0 0 0 0 0 0 0 0 0 0 0 0 0 0 0 0 127 0" result="hardAlpha"/>
<feOffset dy="2.33333"/>
<feGaussianBlur stdDeviation="2.33333"/>
<feComposite in2="hardAlpha" operator="out"/>
<feColorMatrix type="matrix" values="0 0 0 0 0.176471 0 0 0 0 0.0941176 0 0 0 0 0.623529 0 0 0 0.16 0"/>
<feBlend mode="normal" in2="BackgroundImageFix" result="effect1_dropShadow_7080_51148"/>
<feBlend mode="normal" in="SourceGraphic" in2="effect1_dropShadow_7080_51148" result="shape"/>
</filter>
</defs>
</svg>
