<svg width="38" height="38" viewBox="0 0 38 38" fill="none" xmlns="http://www.w3.org/2000/svg">
<g filter="url(#filter0_d_7097_51197)">
<rect x="5.08594" y="3" width="28" height="28" rx="14" fill="#FEF7F7" shape-rendering="crispEdges"/>
<rect x="5.66927" y="3.58333" width="26.8333" height="26.8333" rx="13.4167" stroke="#2D189F" stroke-width="1.16667" shape-rendering="crispEdges"/>
<path d="M12.6418 16.5259L13.2513 16.6783L13.5844 19.99C13.7727 21.8613 13.8668 22.7969 14.4916 23.362C15.1165 23.9272 16.0568 23.9272 17.9374 23.9272H20.2318C22.1125 23.9272 23.0528 23.9272 23.6777 23.362C24.3025 22.7969 24.3966 21.8613 24.5848 19.99L24.918 16.6783L25.5276 16.5259C26.0264 16.4012 26.3763 15.953 26.3763 15.4388C26.3763 15.0731 26.1979 14.7305 25.8983 14.5208L19.9209 10.3366C19.4188 9.98512 18.7505 9.98512 18.2484 10.3366L12.2709 14.5208C11.9714 14.7305 11.793 15.0731 11.793 15.4388C11.793 15.953 12.1429 16.4012 12.6418 16.5259Z" stroke="#EF5A5C" stroke-width="1.09375" stroke-linecap="round" stroke-linejoin="round"/>
<path d="M21.2734 19.9167C20.6905 20.3706 19.9246 20.6459 19.0859 20.6459C18.2473 20.6459 17.4814 20.3706 16.8984 19.9167" stroke="#EF5A5C" stroke-width="1.09375" stroke-linecap="round"/>
</g>
<defs>
<filter id="filter0_d_7097_51197" x="0.419271" y="0.666667" width="37.3333" height="37.3333" filterUnits="userSpaceOnUse" color-interpolation-filters="sRGB">
<feFlood flood-opacity="0" result="BackgroundImageFix"/>
<feColorMatrix in="SourceAlpha" type="matrix" values="0 0 0 0 0 0 0 0 0 0 0 0 0 0 0 0 0 0 127 0" result="hardAlpha"/>
<feOffset dy="2.33333"/>
<feGaussianBlur stdDeviation="2.33333"/>
<feComposite in2="hardAlpha" operator="out"/>
<feColorMatrix type="matrix" values="0 0 0 0 0.176471 0 0 0 0 0.0941176 0 0 0 0 0.623529 0 0 0 0.16 0"/>
<feBlend mode="normal" in2="BackgroundImageFix" result="effect1_dropShadow_7097_51197"/>
<feBlend mode="normal" in="SourceGraphic" in2="effect1_dropShadow_7097_51197" result="shape"/>
</filter>
</defs>
</svg>
