<svg width="38" height="38" viewBox="0 0 38 38" fill="none" xmlns="http://www.w3.org/2000/svg">
<g filter="url(#filter0_d_7080_51128)">
<rect x="5.08594" y="3" width="28" height="28" rx="14" fill="#F1FEF7" shape-rendering="crispEdges"/>
<rect x="5.66927" y="3.58333" width="26.8333" height="26.8333" rx="13.4167" stroke="#2D189F" stroke-width="1.16667" shape-rendering="crispEdges"/>
<g clip-path="url(#clip0_7080_51128)">
<path d="M21.0859 14.0001C21.0859 14.0001 21.4193 14.0001 21.7526 14.6667C21.7526 14.6667 22.8114 13.0001 23.7526 12.6667" stroke="#079E50" stroke-linecap="round" stroke-linejoin="round"/>
<path d="M25.7526 13.6666C25.7526 15.5075 24.2602 16.9999 22.4193 16.9999C20.5783 16.9999 19.0859 15.5075 19.0859 13.6666C19.0859 11.8256 20.5783 10.3333 22.4193 10.3333C24.2602 10.3333 25.7526 11.8256 25.7526 13.6666Z" stroke="#079E50" stroke-linecap="round"/>
<path d="M26.2513 17.8297C26.2508 17.5535 26.0266 17.33 25.7504 17.3305C25.4743 17.331 25.2508 17.5553 25.2513 17.8314L26.2513 17.8297ZM17.1285 13.5019C17.4047 13.5004 17.6272 13.2753 17.6257 12.9991C17.6241 12.723 17.399 12.5004 17.1229 12.502L17.1285 13.5019ZM20.0846 23.1669H18.0846V24.1669H20.0846V23.1669ZM18.0846 23.1669C16.82 23.1669 15.9137 23.1662 15.2173 23.0875C14.5301 23.0099 14.1137 22.8621 13.7995 22.6139L13.1797 23.3987C13.702 23.8112 14.3302 23.9937 15.105 24.0812C15.8706 24.1677 16.8435 24.1669 18.0846 24.1669V23.1669ZM11.918 18.3336C11.918 19.4995 11.917 20.4214 12.0097 21.1484C12.1042 21.8891 12.3025 22.4929 12.7466 22.9911L13.493 22.3256C13.2353 22.0365 13.0827 21.6571 13.0017 21.0219C12.9189 20.3729 12.918 19.526 12.918 18.3336H11.918ZM13.7995 22.6139C13.6883 22.5261 13.5858 22.4296 13.493 22.3256L12.7466 22.9911C12.8784 23.1389 13.0234 23.2753 13.1797 23.3987L13.7995 22.6139ZM25.2513 18.3336C25.2513 19.526 25.2504 20.3729 25.1676 21.0219C25.0866 21.6571 24.934 22.0365 24.6762 22.3256L25.4226 22.9911C25.8668 22.4929 26.0651 21.8891 26.1596 21.1484C26.2522 20.4214 26.2513 19.4995 26.2513 18.3336H25.2513ZM20.0846 24.1669C21.3258 24.1669 22.2986 24.1677 23.0642 24.0812C23.839 23.9937 24.4673 23.8112 24.9896 23.3987L24.3698 22.6139C24.0556 22.8621 23.6392 23.0099 22.952 23.0875C22.2556 23.1662 21.3492 23.1669 20.0846 23.1669V24.1669ZM24.6762 22.3256C24.5835 22.4296 24.481 22.5261 24.3698 22.6139L24.9896 23.3987C25.1459 23.2753 25.2908 23.1389 25.4226 22.9911L24.6762 22.3256ZM12.918 18.3336C12.918 17.1412 12.9189 16.2943 13.0017 15.6453C13.0827 15.0101 13.2353 14.6307 13.493 14.3416L12.7466 13.6761C12.3025 14.1743 12.1042 14.7781 12.0097 15.5188C11.917 16.2458 11.918 17.1677 11.918 18.3336H12.918ZM13.1797 13.2685C13.0234 13.3919 12.8784 13.5283 12.7466 13.6761L13.493 14.3416C13.5858 14.2376 13.6883 14.1411 13.7995 14.0532L13.1797 13.2685ZM26.2513 18.3336C26.2513 18.1608 26.2516 17.9917 26.2513 17.8297L25.2513 17.8314C25.2516 17.9923 25.2513 18.1584 25.2513 18.3336H26.2513ZM17.1229 12.502C16.1845 12.5073 15.4207 12.5289 14.795 12.6276C14.16 12.7279 13.6304 12.9125 13.1797 13.2685L13.7995 14.0532C14.071 13.8388 14.4188 13.6994 14.9509 13.6154C15.4924 13.5299 16.1856 13.5073 17.1285 13.5019L17.1229 12.502Z" fill="#079E50"/>
<path d="M17.7539 21H18.7539" stroke="#079E50" stroke-miterlimit="10" stroke-linecap="round" stroke-linejoin="round"/>
<path d="M20.7539 21H23.0872" stroke="#079E50" stroke-miterlimit="10" stroke-linecap="round" stroke-linejoin="round"/>
<path d="M12.7539 16.3333H17.7539" stroke="#079E50" stroke-linecap="round" stroke-linejoin="round"/>
</g>
</g>
<defs>
<filter id="filter0_d_7080_51128" x="0.419271" y="0.666667" width="37.3333" height="37.3333" filterUnits="userSpaceOnUse" color-interpolation-filters="sRGB">
<feFlood flood-opacity="0" result="BackgroundImageFix"/>
<feColorMatrix in="SourceAlpha" type="matrix" values="0 0 0 0 0 0 0 0 0 0 0 0 0 0 0 0 0 0 127 0" result="hardAlpha"/>
<feOffset dy="2.33333"/>
<feGaussianBlur stdDeviation="2.33333"/>
<feComposite in2="hardAlpha" operator="out"/>
<feColorMatrix type="matrix" values="0 0 0 0 0.176471 0 0 0 0 0.0941176 0 0 0 0 0.623529 0 0 0 0.16 0"/>
<feBlend mode="normal" in2="BackgroundImageFix" result="effect1_dropShadow_7080_51128"/>
<feBlend mode="normal" in="SourceGraphic" in2="effect1_dropShadow_7080_51128" result="shape"/>
</filter>
<clipPath id="clip0_7080_51128">
<rect width="16" height="16" fill="white" transform="translate(11.0859 9)"/>
</clipPath>
</defs>
</svg>
