<svg width="38" height="38" viewBox="0 0 38 38" fill="none" xmlns="http://www.w3.org/2000/svg">
<g filter="url(#filter0_d_7080_51085)">
<path d="M5.08594 17C5.08594 9.26801 11.354 3 19.0859 3C26.8179 3 33.0859 9.26801 33.0859 17C33.0859 24.732 26.8179 31 19.0859 31C11.354 31 5.08594 24.732 5.08594 17Z" fill="#F3F2F9"/>
<path d="M19.0859 3.58301C26.4958 3.58301 32.5029 9.59018 32.5029 17C32.5029 24.4098 26.4958 30.417 19.0859 30.417C11.6761 30.417 5.66895 24.4098 5.66895 17C5.66895 9.59018 11.6761 3.58301 19.0859 3.58301Z" stroke="#2D189F" stroke-width="1.16667"/>
<path d="M21.2083 22.0464V23.6111C21.2083 24.1281 20.7572 24.551 20.2057 24.551H14.1901C13.6387 24.551 13.1875 24.1281 13.1875 23.6111V11.1184C13.1875 9.96662 13.51 9.44934 14.9193 9.44934H20.2057C20.7572 9.44934 21.2083 9.87232 21.2083 10.3893V19.256" stroke="#654EE4" stroke-width="1.09375" stroke-miterlimit="22.926" stroke-linecap="round" stroke-linejoin="round"/>
<path fill-rule="evenodd" clip-rule="evenodd" d="M15.375 15.8228C15.6762 15.8228 15.9219 15.5771 15.9219 15.2759C15.9219 14.9747 15.6762 14.729 15.375 14.729C15.0738 14.729 14.8281 14.9747 14.8281 15.2759C14.8281 15.5771 15.0738 15.8228 15.375 15.8228Z" fill="#654EE4"/>
<path fill-rule="evenodd" clip-rule="evenodd" d="M17.1992 15.8228C17.5004 15.8228 17.7461 15.5771 17.7461 15.2759C17.7461 14.9747 17.5004 14.729 17.1992 14.729C16.898 14.729 16.6523 14.9747 16.6523 15.2759C16.6523 15.5771 16.898 15.8228 17.1992 15.8228Z" fill="#654EE4"/>
<path fill-rule="evenodd" clip-rule="evenodd" d="M19.0195 15.8228C19.3207 15.8228 19.5664 15.5771 19.5664 15.2759C19.5664 14.9747 19.3207 14.729 19.0195 14.729C18.7183 14.729 18.4727 14.9747 18.4727 15.2759C18.4727 15.5771 18.7183 15.8228 19.0195 15.8228Z" fill="#654EE4"/>
<path fill-rule="evenodd" clip-rule="evenodd" d="M15.375 13.9998C15.6762 13.9998 15.9219 13.7541 15.9219 13.4529C15.9219 13.1517 15.6762 12.906 15.375 12.906C15.0738 12.906 14.8281 13.1517 14.8281 13.4529C14.8281 13.7541 15.0738 13.9998 15.375 13.9998Z" fill="#654EE4"/>
<path fill-rule="evenodd" clip-rule="evenodd" d="M17.1992 13.9998C17.5004 13.9998 17.7461 13.7541 17.7461 13.4529C17.7461 13.1517 17.5004 12.906 17.1992 12.906C16.898 12.906 16.6523 13.1517 16.6523 13.4529C16.6523 13.7541 16.898 13.9998 17.1992 13.9998Z" fill="#654EE4"/>
<path fill-rule="evenodd" clip-rule="evenodd" d="M19.0195 13.9998C19.3207 13.9998 19.5664 13.7541 19.5664 13.4529C19.5664 13.1517 19.3207 12.906 19.0195 12.906C18.7183 12.906 18.4727 13.1517 18.4727 13.4529C18.4727 13.7541 18.7183 13.9998 19.0195 13.9998Z" fill="#654EE4"/>
<path fill-rule="evenodd" clip-rule="evenodd" d="M15.375 12.177C15.6762 12.177 15.9219 11.9313 15.9219 11.6301C15.9219 11.3289 15.6762 11.0833 15.375 11.0833C15.0738 11.0833 14.8281 11.3289 14.8281 11.6301C14.8281 11.9313 15.0738 12.177 15.375 12.177Z" fill="#654EE4"/>
<path fill-rule="evenodd" clip-rule="evenodd" d="M17.1992 12.177C17.5004 12.177 17.7461 11.9313 17.7461 11.6301C17.7461 11.3289 17.5004 11.0833 17.1992 11.0833C16.898 11.0833 16.6523 11.3289 16.6523 11.6301C16.6523 11.9313 16.898 12.177 17.1992 12.177Z" fill="#654EE4"/>
<path fill-rule="evenodd" clip-rule="evenodd" d="M19.0195 12.177C19.3207 12.177 19.5664 11.9313 19.5664 11.6301C19.5664 11.3289 19.3207 11.0833 19.0195 11.0833C18.7183 11.0833 18.4727 11.3289 18.4727 11.6301C18.4727 11.9313 18.7183 12.177 19.0195 12.177Z" fill="#654EE4"/>
<path d="M17.2688 19.5034C17.7105 19.5034 18.1073 19.6985 18.3804 20.0083H24.2622C24.8091 20.0083 25.2565 20.4628 25.2565 21.0182C25.2565 21.5736 24.8091 22.028 24.2622 22.028H18.3804C18.1073 22.3379 17.7105 22.533 17.2688 22.533C16.4451 22.533 15.7773 21.8548 15.7773 21.0182C15.7773 20.1816 16.4451 19.5034 17.2688 19.5034Z" stroke="#654EE4" stroke-width="1.09375" stroke-miterlimit="22.926" stroke-linecap="round" stroke-linejoin="round"/>
<path d="M17.1875 17.1709C17.2811 17.1709 17.3584 17.0936 17.3584 17C17.3584 16.9064 17.2811 16.8291 17.1875 16.8291C17.0939 16.8291 17.0166 16.9064 17.0166 17C17.0166 17.0936 17.0939 17.1709 17.1875 17.1709Z" fill="#654EE4" stroke="#654EE4" stroke-width="0.751953"/>
</g>
<defs>
<filter id="filter0_d_7080_51085" x="0.419271" y="0.666667" width="37.3333" height="37.3333" filterUnits="userSpaceOnUse" color-interpolation-filters="sRGB">
<feFlood flood-opacity="0" result="BackgroundImageFix"/>
<feColorMatrix in="SourceAlpha" type="matrix" values="0 0 0 0 0 0 0 0 0 0 0 0 0 0 0 0 0 0 127 0" result="hardAlpha"/>
<feOffset dy="2.33333"/>
<feGaussianBlur stdDeviation="2.33333"/>
<feComposite in2="hardAlpha" operator="out"/>
<feColorMatrix type="matrix" values="0 0 0 0 0.176471 0 0 0 0 0.0941176 0 0 0 0 0.623529 0 0 0 0.16 0"/>
<feBlend mode="normal" in2="BackgroundImageFix" result="effect1_dropShadow_7080_51085"/>
<feBlend mode="normal" in="SourceGraphic" in2="effect1_dropShadow_7080_51085" result="shape"/>
</filter>
</defs>
</svg>
