<svg width="198" height="44" viewBox="0 0 198 44" fill="none" xmlns="http://www.w3.org/2000/svg">
<g clip-path="url(#clip0_11414_40426)">
<path d="M15.0612 25.28L6.70529 31.3236L0 36.1798V26.9894L7.41111 21.6296L8.71248 20.6885L15.0612 25.28Z" fill="#7C69E8"/>
<path d="M24.5971 4.59519L18.2411 9.19774L0 22.3951V13.2047L11.8923 4.60255L18.2447 0L24.5971 4.59519Z" fill="#25A4E8"/>
<path d="M36.4885 13.2038V22.3978L30.9448 18.3871L27.7723 16.0896L21.4199 11.4944L27.7723 6.89551L36.4885 13.2038Z" fill="#2CC6A3"/>
<path d="M36.4897 26.9931V36.1871L21.4212 25.28L18.2413 22.986V22.9824L11.8926 18.3909L18.245 13.792L24.5937 18.3872H24.5974L27.7736 20.6848L36.4897 26.9931Z" fill="#ECC818"/>
<path d="M30.1382 36.1869L6.35352 36.1833L18.2422 27.5811L30.1382 36.1869Z" fill="#F14467"/>
<path d="M105.159 27.6148C105.159 30.9123 106.913 32.4893 109.545 32.4893C112.177 32.4893 113.931 30.8387 113.931 27.6148V18.8104H118.103V35.5444C118.103 41.5768 114.28 43.9996 109.475 43.9996C105.443 43.9995 102.108 42.1392 101.127 38.0366H105.299C106.002 39.6504 107.369 40.3859 109.475 40.3859C112.317 40.3859 113.931 39.018 113.931 35.6507V33.4744C112.88 35.3676 111.056 36.3859 108.773 36.3859C104.774 36.3859 100.987 33.7907 100.987 27.6148V18.8104H105.159V27.6148Z" fill="black"/>
<path d="M147.424 27.8313C147.424 31.1288 149.177 32.7062 151.81 32.7062C154.442 32.7061 156.195 31.1288 156.195 27.8313V18.8176H160.368V27.8313C160.368 33.6212 156.93 36.6027 151.81 36.6027C146.689 36.6027 143.251 33.658 143.251 27.8313V18.8176H147.424V27.8313Z" fill="black"/>
<path fill-rule="evenodd" clip-rule="evenodd" d="M89.7304 18.3581C95.2372 18.3581 98.9538 22.0418 98.9538 27.6184V36.1432H95.1305V32.7392C94.0791 35.3014 91.7263 36.5992 88.9912 36.5992C84.7821 36.5991 80.3634 33.5809 80.3634 27.655C80.3634 22.1482 84.2235 18.3581 89.7304 18.3581ZM89.6934 22.251C86.6386 22.2511 84.5727 24.4273 84.5727 27.4784C84.5727 30.5296 86.6422 32.7061 89.6934 32.7062C92.7446 32.7062 94.7812 30.5296 94.7812 27.4784C94.7811 24.4273 92.7482 22.251 89.6934 22.251Z" fill="black"/>
<path fill-rule="evenodd" clip-rule="evenodd" d="M166.574 21.3395C167.802 19.4096 169.871 18.3581 172.364 18.3581C176.573 18.3581 180.992 21.3762 180.992 27.3022C180.992 32.8089 177.132 36.5991 171.625 36.5992C166.118 36.5992 162.398 32.9523 162.398 27.3388L162.401 11.2373H166.574V21.3395ZM171.658 22.251C168.607 22.251 166.57 24.4273 166.57 27.4784C166.57 30.5296 168.607 32.7062 171.658 32.7062C174.709 32.7061 176.779 30.5296 176.779 27.4784C176.779 24.4273 174.709 22.2511 171.658 22.251Z" fill="black"/>
<path d="M54.2372 12.7447C59.1118 12.7447 62.1667 15.5864 62.3395 19.7955H58.0936C58.0568 18.042 56.7626 16.7774 54.2703 16.7774C51.7779 16.7774 50.4803 18.1452 50.4803 19.8289C50.4804 21.8285 52.6199 22.2145 55.1085 22.6703C58.5825 23.3026 62.7218 24.0379 62.7218 29.3682C62.7218 33.8236 59.3178 36.5955 54.197 36.5956C49.0762 36.5956 45.7785 33.8937 45.6719 29.5118L50.0614 29.5154C50.0981 31.3387 51.4656 32.5665 54.2006 32.5665C56.9356 32.5665 58.3399 31.3387 58.3399 29.5154C58.3399 27.5156 56.2004 27.1294 53.7117 26.6735C50.2377 26.0413 46.135 25.3061 46.135 19.9721C46.135 15.7299 49.3627 12.7448 54.2372 12.7447Z" fill="black"/>
<path d="M69.1037 18.814H78.0478V22.6003H69.1037V29.4748C69.1038 31.7907 70.2952 32.7026 72.0156 32.7026C73.7359 32.7025 74.927 31.8237 74.9271 29.4748V29.0189H79.1029V29.4748C79.1029 34.2795 76.2246 36.5955 72.0192 36.5956C67.8137 36.5956 64.9315 34.2795 64.9315 29.4748V12.6747H69.1037V18.814Z" fill="black"/>
<path d="M125.117 22.4277H136.098V13.2043H140.587V36.1436H136.098V26.5669H125.117V36.1436H120.629V13.2043H125.117V22.4277Z" fill="black"/>
<path d="M186.345 35.6318C188.18 35.6318 189.668 34.144 189.668 32.3086C189.668 30.4732 188.18 28.9854 186.345 28.9854C184.509 28.9854 183.021 30.4732 183.021 32.3086C183.021 34.144 184.509 35.6318 186.345 35.6318Z" fill="#25A4E8"/>
<path d="M194.597 35.6318C196.432 35.6318 197.92 34.144 197.92 32.3086C197.92 30.4732 196.432 28.9854 194.597 28.9854C192.761 28.9854 191.273 30.4732 191.273 32.3086C191.273 34.144 192.761 35.6318 194.597 35.6318Z" fill="#2CC6A3"/>
</g>
<defs>
<clipPath id="clip0_11414_40426">
<rect width="197.92" height="43.9996" fill="white"/>
</clipPath>
</defs>
</svg>
