<svg width="16" height="16" viewBox="0 0 16 16" fill="none" xmlns="http://www.w3.org/2000/svg">
<g opacity="0.8">
<path d="M15.1667 4.99984C15.1667 2.88274 13.4504 1.1665 11.3333 1.1665V2.1665C12.8981 2.1665 14.1667 3.43503 14.1667 4.99984H15.1667ZM11.3333 1.1665C9.21627 1.1665 7.5 2.88274 7.5 4.99984H8.5C8.5 3.43503 9.76853 2.1665 11.3333 2.1665V1.1665ZM7.5 4.99984C7.5 7.1169 9.21627 8.83317 11.3333 8.83317V7.83317C9.76853 7.83317 8.5 6.56464 8.5 4.99984H7.5ZM11.3333 8.83317C13.4504 8.83317 15.1667 7.1169 15.1667 4.99984H14.1667C14.1667 6.56464 12.8981 7.83317 11.3333 7.83317V8.83317Z" fill="#3D3568"/>
<path d="M11.8799 3.69967C12.0744 3.50525 12.3899 3.50525 12.5844 3.69967C12.7786 3.89404 12.7785 4.20904 12.5844 4.40345L12.0134 4.97376L12.5844 5.54538C12.7787 5.73981 12.7788 6.05475 12.5844 6.24915C12.39 6.4435 12.075 6.4435 11.8806 6.24915L11.3096 5.67819L10.7387 6.24915C10.5443 6.44354 10.2293 6.44346 10.0349 6.24915C9.84047 6.05473 9.84048 5.73981 10.0349 5.54538L10.6052 4.97376L10.0349 4.40345C9.84066 4.20903 9.84059 3.89405 10.0349 3.69967C10.2293 3.50525 10.5449 3.50525 10.7393 3.69967L11.3096 4.26999L11.8799 3.69967Z" fill="#3D3568"/>
<path d="M7.66797 11.6665H8.33464M10.3346 11.6665H12.3346" stroke="#3D3568" stroke-miterlimit="10" stroke-linecap="round" stroke-linejoin="round"/>
<path d="M1.33203 7H6.33203" stroke="#3D3568" stroke-linecap="round" stroke-linejoin="round"/>
<path d="M5.66536 3.6665H2.66536C1.92898 3.6665 1.33203 4.26346 1.33203 4.99984V12.9998C1.33203 13.7362 1.92898 14.3332 2.66536 14.3332H13.332C14.0684 14.3332 14.6654 13.7362 14.6654 12.9998V9.33317" stroke="#3D3568" stroke-linecap="round" stroke-linejoin="round"/>
</g>
</svg>
