<svg width="16" height="16" viewBox="0 0 16 16" fill="none" xmlns="http://www.w3.org/2000/svg">
<g opacity="0.8">
<path d="M1.33203 7.99984C1.33203 5.01428 1.33203 3.5215 2.25952 2.594C3.18702 1.6665 4.6798 1.6665 7.66536 1.6665C10.6509 1.6665 12.1437 1.6665 13.0712 2.594C13.9987 3.5215 13.9987 5.01428 13.9987 7.99984C13.9987 10.9854 13.9987 12.4782 13.0712 13.4057C12.1437 14.3332 10.6509 14.3332 7.66536 14.3332C4.6798 14.3332 3.18702 14.3332 2.25952 13.4057C1.33203 12.4782 1.33203 10.9854 1.33203 7.99984Z" stroke="#3D3568" stroke-linejoin="round"/>
<path d="M8.24123 5.1479L8.82783 6.3308C8.90783 6.49547 9.12117 6.65341 9.3011 6.68364L10.3644 6.86177C11.0443 6.97604 11.2042 7.47337 10.7143 7.96397L9.8877 8.79744C9.74776 8.93857 9.6711 9.21077 9.71443 9.40564L9.95103 10.4373C10.1377 11.254 9.70777 11.5698 8.99117 11.143L7.99463 10.5482C7.81463 10.4407 7.51797 10.4407 7.3347 10.5482L6.33812 11.143C5.62486 11.5698 5.19158 11.2506 5.37823 10.4373L5.61487 9.40564C5.6582 9.21077 5.58154 8.93857 5.44155 8.79744L4.61498 7.96397C4.12837 7.47337 4.28501 6.97604 4.96494 6.86177L6.02816 6.68364C6.20481 6.65341 6.41811 6.49547 6.49811 6.3308L7.0847 5.1479C7.4047 4.50604 7.92463 4.50604 8.24123 5.1479Z" stroke="#3D3568" stroke-linecap="round" stroke-linejoin="round"/>
</g>
</svg>
