<svg width="16" height="16" viewBox="0 0 16 16" fill="none" xmlns="http://www.w3.org/2000/svg">
<g opacity="0.8" clip-path="url(#clip0_11021_80728)">
<path d="M11.668 3.3335C12.2203 3.3335 12.668 3.78121 12.668 4.3335C12.668 4.88578 12.2203 5.3335 11.668 5.3335C11.1157 5.3335 10.668 4.88578 10.668 4.3335C10.668 3.78121 11.1157 3.3335 11.668 3.3335Z" stroke="#3D3568" stroke-linecap="round" stroke-linejoin="round"/>
<path d="M1.84819 7.42943C1.17942 8.17636 1.16503 9.30323 1.77881 10.096C2.99677 11.669 4.32986 13.0021 5.90292 14.22C6.69563 14.8338 7.8225 14.8194 8.56943 14.1507C10.5973 12.335 12.4544 10.4374 14.2466 8.3521C14.4238 8.14596 14.5346 7.8933 14.5595 7.62256C14.6695 6.42548 14.8955 2.97661 13.9589 2.03999C13.0222 1.10337 9.57337 1.32934 8.3763 1.43934C8.10557 1.46422 7.8529 1.57505 7.6467 1.75224C5.56145 3.54447 3.66391 5.40157 1.84819 7.42943Z" stroke="#3D3568"/>
<path d="M4.66797 9.3335L6.66796 11.3335" stroke="#3D3568" stroke-linecap="round" stroke-linejoin="round"/>
</g>
<defs>
<clipPath id="clip0_11021_80728">
<rect width="16" height="16" fill="white"/>
</clipPath>
</defs>
</svg>
