<svg width="38" height="38" viewBox="0 0 38 38" fill="none" xmlns="http://www.w3.org/2000/svg">
<g filter="url(#filter0_d_7080_51104)">
<path d="M5.08594 17C5.08594 9.26801 11.354 3 19.0859 3C26.8179 3 33.0859 9.26801 33.0859 17C33.0859 24.732 26.8179 31 19.0859 31C11.354 31 5.08594 24.732 5.08594 17Z" fill="#FAECEB"/>
<path d="M19.0859 3.58301C26.4958 3.58301 32.5029 9.59018 32.5029 17C32.5029 24.4098 26.4958 30.417 19.0859 30.417C11.6761 30.417 5.66895 24.4098 5.66895 17C5.66895 9.59018 11.6761 3.58301 19.0859 3.58301Z" stroke="#2D189F" stroke-width="1.16667"/>
<g opacity="0.8">
<path d="M19.0872 24.2916H17.9935C15.2436 24.2916 13.8687 24.2916 13.0144 23.4373C12.1601 22.583 12.1601 21.2081 12.1602 18.4582L12.1602 15.5415C12.1602 12.7917 12.1602 11.4168 13.0145 10.5625C13.8688 9.70825 15.2437 9.70825 17.9935 9.70825H18.7226C21.4725 9.70825 22.8474 9.70825 23.7017 10.5625C24.5559 11.4168 24.5559 12.7917 24.5559 15.5416V16.2708" stroke="#E4604E" stroke-width="1.09375" stroke-linecap="round" stroke-linejoin="round"/>
<path d="M15.4414 13.3542H21.2747M15.4414 17.0001H18.7227" stroke="#E4604E" stroke-width="1.09375" stroke-linecap="round" stroke-linejoin="round"/>
<path d="M23.0964 23.3968C24.385 23.3968 25.4297 22.3285 25.4297 21.0105C25.4297 19.6925 24.385 18.6242 23.0964 18.6242M23.0964 23.3968C21.8077 23.3968 20.763 22.3285 20.763 21.0105C20.763 19.6925 21.8077 18.6242 23.0964 18.6242M23.0964 23.3968V24.2917M23.0964 18.6242V17.7292M20.9754 19.7089L20.18 19.2208M26.013 22.8002L25.2176 22.3121M25.2173 19.7089L26.0127 19.2208M20.1797 22.8002L20.9751 22.3121" stroke="#E4604E" stroke-width="1.09375" stroke-linecap="round"/>
</g>
</g>
<defs>
<filter id="filter0_d_7080_51104" x="0.419271" y="0.666667" width="37.3333" height="37.3333" filterUnits="userSpaceOnUse" color-interpolation-filters="sRGB">
<feFlood flood-opacity="0" result="BackgroundImageFix"/>
<feColorMatrix in="SourceAlpha" type="matrix" values="0 0 0 0 0 0 0 0 0 0 0 0 0 0 0 0 0 0 127 0" result="hardAlpha"/>
<feOffset dy="2.33333"/>
<feGaussianBlur stdDeviation="2.33333"/>
<feComposite in2="hardAlpha" operator="out"/>
<feColorMatrix type="matrix" values="0 0 0 0 0.176471 0 0 0 0 0.0941176 0 0 0 0 0.623529 0 0 0 0.16 0"/>
<feBlend mode="normal" in2="BackgroundImageFix" result="effect1_dropShadow_7080_51104"/>
<feBlend mode="normal" in="SourceGraphic" in2="effect1_dropShadow_7080_51104" result="shape"/>
</filter>
</defs>
</svg>
